<svg xmlns="http://www.w3.org/2000/svg" version="1.1" xmlns:xlink="http://www.w3.org/1999/xlink" xmlns:svgjs="http://svgjs.dev/svgjs" width="1000" height="623" viewBox="0 0 1000 623"><g transform="matrix(1,0,0,1,-0.6060606060606233,0.2522267206477409)"><svg viewBox="0 0 396 247" data-background-color="#ffffff" preserveAspectRatio="xMidYMid meet" height="623" width="1000" xmlns="http://www.w3.org/2000/svg" xmlns:xlink="http://www.w3.org/1999/xlink"><g id="tight-bounds" transform="matrix(1,0,0,1,0.2400000000000091,-0.09999999999999432)"><svg viewBox="0 0 395.52 247.2" height="247.2" width="395.52"><g><svg></svg></g><g><svg viewBox="0 0 395.52 247.2" height="247.2" width="395.52"><g transform="matrix(1,0,0,1,151.6292451361962,47.215199999999996)"><svg viewBox="0 0 92.26150972760756 152.7696" height="152.7696" width="92.26150972760756"><g><svg viewBox="0 0 138.01287460102014 228.52619374966673" height="152.7696" width="92.26150972760756"><g><svg viewBox="0 0 138.01287460102014 228.52619374966673" height="228.52619374966673" width="138.01287460102014"><g id="textblocktransform"><svg viewBox="0 0 138.01287460102014 228.52619374966673" height="228.52619374966673" width="138.01287460102014" id="textblock"><g><svg viewBox="0 0 138.01287460102014 151.825483872" height="151.825483872" width="138.01287460102014"><g transform="matrix(1,0,0,1,0,0)"><svg width="138.01287460102014" viewBox="-0.27000001072883606 -32.540000915527344 29.760000228881836 32.7400016784668" height="151.825483872" data-palette-color="#ff5858"><path d="M8.86-7.03L6.57 0.2Q4.47 0 1.66 0L1.66 0-0.27 0 10.35-29.76Q11.06-31.76 11.06-32.09 11.06-32.42 11.04-32.5L11.04-32.5 11.06-32.54Q12.65-32.47 14.43-32.47L14.43-32.47Q15.89-32.47 17.94-32.52L17.94-32.52 17.97-32.47Q17.92-32.37 17.92-32.2L17.92-32.2Q17.92-31.74 18.65-29.74L18.65-29.74 29.49 0.07Q29 0.05 28.34 0.05L28.34 0.05Q28.34 0.05 27.08 0L27.08 0Q26.46 0 25.98 0L25.98 0 22.19 0 19.9-7.03 8.86-7.03ZM10.72-12.89L17.99-12.89 14.31-24.24 10.72-12.89Z" opacity="1" transform="matrix(1,0,0,1,0,0)" fill="#ff5858" class="undefined-text-0" data-fill-palette-color="primary" id="text-0"></path></svg></g></svg></g><g transform="matrix(1,0,0,1,0,187.66783680256628)"><svg viewBox="0 0 138.01287460102014 40.85835694710043" height="40.85835694710043" width="138.01287460102014"><g transform="matrix(1,0,0,1,0,0)"><svg width="138.01287460102014" viewBox="4.5 -37 126.49000549316406 37.45000076293945" height="40.85835694710043" data-palette-color="#ff5858"><path d="M13.5-1.35L4.5 0.05Q5.65-5.45 6.7-10.8L6.7-10.8Q7.15-13.05 7.6-15.5 8.05-17.95 8.47-20.33 8.9-22.7 9.22-24.93 9.55-27.15 9.8-29L9.8-29Q8.65-29.15 7.48-29.1 6.3-29.05 5.15-29.4L5.15-29.4Q5.2-30.2 5.2-31.25 5.2-32.3 5.25-33.35L5.25-33.35Q5.3-34.5 5.35-35.8L5.35-35.8Q6.65-35.7 7.95-35.65 9.25-35.6 10.55-35.6L10.55-35.6Q13.1-35.6 15.48-35.73 17.85-35.85 19.88-36.02 21.9-36.2 23.85-36.45L23.85-36.45 23.3-33.75Q23.05-32.6 22.83-31.4 22.6-30.2 22.4-29.35L22.4-29.35Q21.3-29.05 20.18-28.93 19.05-28.8 17.95-28.6L17.95-28.6Q17.6-26.9 17.2-24.83 16.8-22.75 16.43-20.53 16.05-18.3 15.7-16 15.35-13.7 15-11.6L15-11.6Q14.2-6.65 13.5-1.35L13.5-1.35ZM26.2-1.5L18.5 0.1Q19.9-6.9 21.2-13.55L21.2-13.55Q21.7-16.4 22.25-19.48 22.8-22.55 23.27-25.55 23.75-28.55 24.17-31.38 24.6-34.2 24.85-36.5L24.85-36.5Q26-36.45 26.97-36.38 27.95-36.3 28.9-36.25 29.85-36.2 30.82-36.18 31.8-36.15 32.95-36.15L32.95-36.15Q32.1-32.6 31.27-29.05 30.45-25.5 29.75-21.9L29.75-21.9 34.7-22.45Q35.4-26 35.95-29.33 36.5-32.65 37.4-36.2L37.4-36.2Q38.55-36.4 39.95-36.52 41.35-36.65 42.55-36.75 43.75-36.85 44.57-36.93 45.4-37 45.4-37L45.4-37Q44.7-34.75 44.07-32.08 43.45-29.4 42.85-26.53 42.25-23.65 41.7-20.7 41.15-17.75 40.7-15.1L40.7-15.1Q39.6-8.75 38.65-2.1L38.65-2.1 30.85-1.2Q31.5-4.2 32-7.05L32-7.05Q32.5-9.45 33.02-12.05 33.55-14.65 33.85-16.5L33.85-16.5 29-16.05Q28.65-14.15 28.17-11.65 27.7-9.15 27.3-6.9L27.3-6.9Q26.75-4.2 26.2-1.5L26.2-1.5ZM56.7-2.45L40.55 0.05 47.1-35.5 62.9-36.85Q62.55-35.75 62.3-34.6L62.3-34.6Q62.05-33.65 61.82-32.63 61.6-31.6 61.45-30.8L61.45-30.8Q60.95-30.75 60.02-30.73 59.09-30.7 58.05-30.68 57-30.65 55.92-30.65 54.85-30.65 54.05-30.65L54.05-30.65 52.3-21.7Q53.85-21.8 55.2-21.85L55.2-21.85Q56.3-21.9 57.45-21.9 58.59-21.9 59.15-21.95L59.15-21.95Q58.95-20.55 58.77-19.2 58.59-17.85 58.34-16.45L58.34-16.45Q57.84-16.4 56.72-16.38 55.6-16.35 54.45-16.3L54.45-16.3Q53.15-16.25 51.6-16.2L51.6-16.2 49.9-7 57.2-8.15 56.7-2.45ZM92.39-25.55Q92.39-22.95 91.64-20.03 90.89-17.1 89.54-14.23 88.19-11.35 86.22-8.72 84.24-6.1 81.74-4.13 79.24-2.15 76.27-0.95 73.29 0.25 69.94 0.25L69.94 0.25Q69.24 0.25 68.54 0.18 67.84 0.1 67.14 0L67.14 0Q68.49-6.9 69.79-13.45L69.79-13.45Q70.29-16.2 70.84-19.18 71.39-22.15 71.89-25.05 72.39-27.95 72.87-30.6 73.34-33.25 73.64-35.4L73.64-35.4Q75.79-35.8 77.99-36.15 80.19-36.5 82.49-36.5L82.49-36.5Q85.19-36.5 87.07-35.65 88.94-34.8 90.12-33.3 91.29-31.8 91.84-29.8 92.39-27.8 92.39-25.55L92.39-25.55ZM80.59-29.45Q80.04-26.5 79.44-23.8 78.84-21.1 78.24-18.35 77.64-15.6 77.04-12.6 76.44-9.6 75.89-6.05L75.89-6.05Q77.09-6.85 78.22-8.22 79.34-9.6 80.34-11.4 81.34-13.2 82.17-15.2 82.99-17.2 83.59-19.1 84.19-21 84.52-22.65 84.84-24.3 84.84-25.5L84.84-25.5Q84.84-27.35 83.82-28.4 82.79-29.45 80.59-29.45L80.59-29.45ZM105.54-2.45L89.39 0.05 95.94-35.5 111.74-36.85Q111.39-35.75 111.14-34.6L111.14-34.6Q110.89-33.65 110.66-32.63 110.44-31.6 110.29-30.8L110.29-30.8Q109.79-30.75 108.86-30.73 107.94-30.7 106.89-30.68 105.84-30.65 104.76-30.65 103.69-30.65 102.89-30.65L102.89-30.65 101.14-21.7Q102.69-21.8 104.04-21.85L104.04-21.85Q105.14-21.9 106.29-21.9 107.44-21.9 107.99-21.95L107.99-21.95Q107.79-20.55 107.61-19.2 107.44-17.85 107.19-16.45L107.19-16.45Q106.69-16.4 105.56-16.38 104.44-16.35 103.29-16.3L103.29-16.3Q101.99-16.25 100.44-16.2L100.44-16.2 98.74-7 106.04-8.15 105.54-2.45ZM121.94-1.5L108.99 0.45Q109.64-6.55 110.19-13.3L110.19-13.3Q110.44-16.1 110.66-19.2 110.89-22.3 111.06-25.33 111.24-28.35 111.34-31.18 111.44-34 111.49-36.35L111.49-36.35Q112.69-36.35 114.06-36.4 115.44-36.45 116.56-36.5 117.69-36.55 118.49-36.63 119.29-36.7 119.29-36.7L119.29-36.7Q118.74-30.9 118.34-27.18 117.94-23.45 117.71-21.13 117.49-18.8 117.31-16.65 117.14-14.5 116.94-12.65 116.74-10.8 116.59-9.5L116.59-9.5 117.49-9.5 123.09-36.1Q124.44-36.15 125.84-36.25L125.84-36.25Q127.09-36.35 128.46-36.4 129.84-36.45 130.99-36.6L130.99-36.6Q130.29-34.4 129.56-31.75 128.84-29.1 128.06-26.25 127.29-23.4 126.56-20.45 125.84-17.5 125.14-14.75L125.14-14.75Q123.54-8.3 121.94-1.5L121.94-1.5Z" opacity="1" transform="matrix(1,0,0,1,0,0)" fill="#ff5858" class="undefined-text-1" data-fill-palette-color="secondary" id="text-1"></path></svg></g></svg></g></svg></g></svg></g></svg></g></svg></g><path d="M66.213 41.215L66.213 0 313.413 0 313.413 247.2 66.213 247.2 66.213 205.985 75.366 205.985 75.366 238.047 304.26 238.047 304.26 9.153 75.366 9.153 75.366 41.215Z" fill="#ff5858" stroke="transparent" data-fill-palette-color="primary"></path></svg></g><defs></defs></svg><rect width="395.52" height="247.2" fill="none" stroke="none" visibility="hidden"></rect></g></svg></g></svg>